<?xml version="1.0" encoding="UTF-8" standalone="no"?>
<!DOCTYPE svg PUBLIC "-//W3C//DTD SVG 1.1//EN" "http://www.w3.org/Graphics/SVG/1.1/DTD/svg11.dtd">
<!-- Generated by graphviz version 2.40.1 (20161225.0304)
 -->
<!-- Title: G Pages: 1 -->
<svg width="134pt" height="260pt" viewBox="0.00 0.00 134.00 260.21" xmlns="http://www.w3.org/2000/svg" xmlns:xlink="http://www.w3.org/1999/xlink">
<g id="graph0" class="graph" transform="scale(1 1) rotate(0) translate(4 256.2146)">
<title>G</title>
<polygon fill="#ffffff" stroke="transparent" points="-4,4 -4,-256.2146 130,-256.2146 130,4 -4,4"/>
<!-- 15 &#45; 18 -->
<g id="node1" class="node">
<title>15 - 18</title>
<ellipse fill="none" stroke="#000000" cx="63" cy="-234.2146" rx="38.2876" ry="18"/>
<text text-anchor="middle" x="63" y="-230.0146" font-family="Times,serif" font-size="14.00" fill="#000000">15 - 18</text>
</g>
<!-- 26 -->
<g id="node2" class="node">
<title>26</title>
<ellipse fill="none" stroke="#000000" cx="63" cy="-162.2146" rx="27" ry="18"/>
<text text-anchor="middle" x="63" y="-158.0146" font-family="Times,serif" font-size="14.00" fill="#000000">26</text>
</g>
<!-- 15 &#45; 18&#45;&gt;26 -->
<g id="edge1" class="edge">
<title>15 - 18-&gt;26</title>
<path fill="none" stroke="#000000" d="M63,-216.046C63,-208.3456 63,-199.1889 63,-190.6312"/>
<polygon fill="#000000" stroke="#000000" points="66.5001,-190.6278 63,-180.6279 59.5001,-190.6279 66.5001,-190.6278"/>
</g>
<!-- 27 -->
<g id="node3" class="node">
<title>27</title>
<ellipse fill="none" stroke="#000000" cx="27" cy="-90.2146" rx="27" ry="18"/>
<text text-anchor="middle" x="27" y="-86.0146" font-family="Times,serif" font-size="14.00" fill="#000000">27</text>
</g>
<!-- 26&#45;&gt;27 -->
<g id="edge2" class="edge">
<title>26-&gt;27</title>
<path fill="none" stroke="#000000" d="M54.2854,-144.7854C50.0403,-136.2953 44.8464,-125.9075 40.1337,-116.482"/>
<polygon fill="#000000" stroke="#000000" points="43.237,-114.8623 35.6343,-107.4833 36.976,-117.9928 43.237,-114.8623"/>
</g>
<!-- 30 -->
<g id="node4" class="node">
<title>30</title>
<ellipse fill="none" stroke="#000000" cx="99" cy="-90.2146" rx="27" ry="18"/>
<text text-anchor="middle" x="99" y="-86.0146" font-family="Times,serif" font-size="14.00" fill="#000000">30</text>
</g>
<!-- 26&#45;&gt;30 -->
<g id="edge3" class="edge">
<title>26-&gt;30</title>
<path fill="none" stroke="#000000" d="M71.7146,-144.7854C75.9597,-136.2953 81.1536,-125.9075 85.8663,-116.482"/>
<polygon fill="#000000" stroke="#000000" points="89.024,-117.9928 90.3657,-107.4833 82.763,-114.8623 89.024,-117.9928"/>
</g>
<!-- end -->
<g id="node5" class="node">
<title>end</title>
<polygon fill="none" stroke="#000000" points="81.2152,-36.3225 44.7848,-36.3225 44.7848,.1079 81.2152,.1079 81.2152,-36.3225"/>
<polyline fill="none" stroke="#000000" points="56.7848,-36.3225 44.7848,-24.3225 "/>
<polyline fill="none" stroke="#000000" points="44.7848,-11.8921 56.7848,.1079 "/>
<polyline fill="none" stroke="#000000" points="69.2152,.1079 81.2152,-11.8921 "/>
<polyline fill="none" stroke="#000000" points="81.2152,-24.3225 69.2152,-36.3225 "/>
<text text-anchor="middle" x="63" y="-13.9073" font-family="Times,serif" font-size="14.00" fill="#000000">end</text>
</g>
<!-- 27&#45;&gt;end -->
<g id="edge4" class="edge">
<title>27-&gt;end</title>
<path fill="none" stroke="#000000" d="M35.5315,-73.1262C39.6796,-64.8177 44.7655,-54.6307 49.4286,-45.2905"/>
<polygon fill="#000000" stroke="#000000" points="52.565,-46.8439 53.9004,-36.3336 46.3021,-43.7171 52.565,-46.8439"/>
</g>
<!-- 30&#45;&gt;end -->
<g id="edge5" class="edge">
<title>30-&gt;end</title>
<path fill="none" stroke="#000000" d="M90.4685,-73.1262C86.3204,-64.8177 81.2345,-54.6307 76.5714,-45.2905"/>
<polygon fill="#000000" stroke="#000000" points="79.6979,-43.7171 72.0996,-36.3336 73.435,-46.8439 79.6979,-43.7171"/>
</g>
</g>
</svg>