<?xml version="1.0" encoding="UTF-8" standalone="no"?>
<!DOCTYPE svg PUBLIC "-//W3C//DTD SVG 1.1//EN" "http://www.w3.org/Graphics/SVG/1.1/DTD/svg11.dtd">
<!-- Generated by graphviz version 2.40.1 (20161225.0304)
 -->
<!-- Title: G Pages: 1 -->
<svg width="170pt" height="332pt" viewBox="0.00 0.00 169.96 332.21" xmlns="http://www.w3.org/2000/svg" xmlns:xlink="http://www.w3.org/1999/xlink">
<g id="graph0" class="graph" transform="scale(1 1) rotate(0) translate(4 328.2146)">
<title>G</title>
<polygon fill="#ffffff" stroke="transparent" points="-4,4 -4,-328.2146 165.9589,-328.2146 165.9589,4 -4,4"/>
<!-- 13 &#45; 14 -->
<g id="node1" class="node">
<title>13 - 14</title>
<ellipse fill="none" stroke="#000000" cx="100.3937" cy="-306.2146" rx="38.2876" ry="18"/>
<text text-anchor="middle" x="100.3937" y="-302.0146" font-family="Times,serif" font-size="14.00" fill="#000000">13 - 14</text>
</g>
<!-- 15 &#45; 18 -->
<g id="node2" class="node">
<title>15 - 18</title>
<ellipse fill="none" stroke="#000000" cx="100.3937" cy="-234.2146" rx="38.2876" ry="18"/>
<text text-anchor="middle" x="100.3937" y="-230.0146" font-family="Times,serif" font-size="14.00" fill="#000000">15 - 18</text>
</g>
<!-- 13 &#45; 14&#45;&gt;15 &#45; 18 -->
<g id="edge1" class="edge">
<title>13 - 14-&gt;15 - 18</title>
<path fill="none" stroke="#000000" d="M100.3937,-288.046C100.3937,-280.3456 100.3937,-271.1889 100.3937,-262.6312"/>
<polygon fill="#000000" stroke="#000000" points="103.8938,-262.6278 100.3937,-252.6279 96.8938,-262.6279 103.8938,-262.6278"/>
</g>
<!-- 19 -->
<g id="node3" class="node">
<title>19</title>
<ellipse fill="none" stroke="#000000" cx="73.3937" cy="-162.2146" rx="27" ry="18"/>
<text text-anchor="middle" x="73.3937" y="-158.0146" font-family="Times,serif" font-size="14.00" fill="#000000">19</text>
</g>
<!-- 15 &#45; 18&#45;&gt;19 -->
<g id="edge2" class="edge">
<title>15 - 18-&gt;19</title>
<path fill="none" stroke="#000000" d="M93.7195,-216.4168C90.6461,-208.221 86.9321,-198.317 83.5241,-189.2291"/>
<polygon fill="#000000" stroke="#000000" points="86.7795,-187.942 79.9911,-179.8076 80.2252,-190.3999 86.7795,-187.942"/>
</g>
<!-- 20 &#45; 21 -->
<g id="node4" class="node">
<title>20 - 21</title>
<ellipse fill="none" stroke="#000000" cx="38.3937" cy="-90.2146" rx="38.2876" ry="18"/>
<text text-anchor="middle" x="38.3937" y="-86.0146" font-family="Times,serif" font-size="14.00" fill="#000000">20 - 21</text>
</g>
<!-- 19&#45;&gt;20 &#45; 21 -->
<g id="edge3" class="edge">
<title>19-&gt;20 - 21</title>
<path fill="none" stroke="#000000" d="M64.9211,-144.7854C60.897,-136.5073 55.996,-126.425 51.5066,-117.1898"/>
<polygon fill="#000000" stroke="#000000" points="54.5511,-115.447 47.0313,-107.9835 48.2555,-118.5074 54.5511,-115.447"/>
</g>
<!-- 23&#45;29 -->
<g id="node6" class="node">
<title>23-29</title>
<ellipse fill="none" stroke="#000000" cx="128.3937" cy="-90.2146" rx="33.6305" ry="18"/>
<text text-anchor="middle" x="128.3937" y="-86.0146" font-family="Times,serif" font-size="14.00" fill="#000000">23-29</text>
</g>
<!-- 19&#45;&gt;23&#45;29 -->
<g id="edge5" class="edge">
<title>19-&gt;23-29</title>
<path fill="none" stroke="#000000" d="M85.874,-145.8767C92.8071,-136.8007 101.5774,-125.3195 109.3495,-115.1452"/>
<polygon fill="#000000" stroke="#000000" points="112.2919,-117.0589 115.581,-106.9875 106.7292,-112.8096 112.2919,-117.0589"/>
</g>
<!-- end -->
<g id="node5" class="node">
<title>end</title>
<polygon fill="none" stroke="#000000" points="56.6089,-36.3225 20.1784,-36.3225 20.1784,.1079 56.6089,.1079 56.6089,-36.3225"/>
<polyline fill="none" stroke="#000000" points="32.1784,-36.3225 20.1784,-24.3225 "/>
<polyline fill="none" stroke="#000000" points="20.1784,-11.8921 32.1784,.1079 "/>
<polyline fill="none" stroke="#000000" points="44.6089,.1079 56.6089,-11.8921 "/>
<polyline fill="none" stroke="#000000" points="56.6089,-24.3225 44.6089,-36.3225 "/>
<text text-anchor="middle" x="38.3937" y="-13.9073" font-family="Times,serif" font-size="14.00" fill="#000000">end</text>
</g>
<!-- 20 &#45; 21&#45;&gt;end -->
<g id="edge4" class="edge">
<title>20 - 21-&gt;end</title>
<path fill="none" stroke="#000000" d="M38.3937,-72.0189C38.3937,-64.2477 38.3937,-54.9956 38.3937,-46.3686"/>
<polygon fill="#000000" stroke="#000000" points="41.8938,-46.2972 38.3937,-36.2972 34.8938,-46.2972 41.8938,-46.2972"/>
</g>
<!-- 23&#45;29&#45;&gt;15 &#45; 18 -->
<g id="edge6" class="edge">
<title>23-29-&gt;15 - 18</title>
<path fill="none" stroke="#000000" d="M124.8601,-108.3873C120.0579,-133.0843 111.4265,-177.4741 105.8054,-206.383"/>
<polygon fill="#000000" stroke="#000000" points="102.3564,-205.7838 103.8833,-216.2681 109.2277,-207.12 102.3564,-205.7838"/>
</g>
</g>
</svg>